<mxfile host="app.diagrams.net" modified="2024-05-01T09:10:26.979Z" agent="Mozilla/5.0 (Windows NT 10.0; Win64; x64; rv:125.0) Gecko/20100101 Firefox/125.0" etag="CJyZrtLWpwNIX5e6vDF6" version="24.3.1" type="device">
  <diagram name="Page-1" id="IGAIs_AbQtJXb9oYm0y-">
    <mxGraphModel dx="-183" dy="360" grid="1" gridSize="10" guides="1" tooltips="1" connect="1" arrows="1" fold="1" page="1" pageScale="1" pageWidth="850" pageHeight="1100" math="0" shadow="0">
      <root>
        <mxCell id="0" />
        <mxCell id="1" parent="0" />
        <mxCell id="mSMyPiHk9TtF8riK5GBz-22" value="External" style="text;html=1;align=center;verticalAlign=middle;whiteSpace=wrap;rounded=0;" vertex="1" parent="1">
          <mxGeometry x="1020" y="40" width="80" height="40" as="geometry" />
        </mxCell>
        <mxCell id="mSMyPiHk9TtF8riK5GBz-23" style="edgeStyle=orthogonalEdgeStyle;rounded=0;orthogonalLoop=1;jettySize=auto;html=1;exitX=1;exitY=0.5;exitDx=0;exitDy=0;entryX=0.5;entryY=0;entryDx=0;entryDy=0;" edge="1" source="mSMyPiHk9TtF8riK5GBz-26" target="mSMyPiHk9TtF8riK5GBz-35" parent="1">
          <mxGeometry relative="1" as="geometry" />
        </mxCell>
        <mxCell id="mSMyPiHk9TtF8riK5GBz-25" style="edgeStyle=orthogonalEdgeStyle;rounded=0;orthogonalLoop=1;jettySize=auto;html=1;exitX=0.5;exitY=0;exitDx=0;exitDy=0;" edge="1" source="mSMyPiHk9TtF8riK5GBz-26" target="mSMyPiHk9TtF8riK5GBz-22" parent="1">
          <mxGeometry relative="1" as="geometry" />
        </mxCell>
        <mxCell id="mSMyPiHk9TtF8riK5GBz-43" style="edgeStyle=orthogonalEdgeStyle;rounded=0;orthogonalLoop=1;jettySize=auto;html=1;exitX=0;exitY=0.5;exitDx=0;exitDy=0;entryX=0.5;entryY=0;entryDx=0;entryDy=0;" edge="1" parent="1" source="mSMyPiHk9TtF8riK5GBz-26" target="mSMyPiHk9TtF8riK5GBz-31">
          <mxGeometry relative="1" as="geometry" />
        </mxCell>
        <mxCell id="mSMyPiHk9TtF8riK5GBz-26" value="Router0" style="rounded=0;whiteSpace=wrap;html=1;" vertex="1" parent="1">
          <mxGeometry x="1020" y="100" width="80" height="40" as="geometry" />
        </mxCell>
        <mxCell id="mSMyPiHk9TtF8riK5GBz-27" style="edgeStyle=orthogonalEdgeStyle;rounded=0;orthogonalLoop=1;jettySize=auto;html=1;exitX=1;exitY=0.5;exitDx=0;exitDy=0;entryX=0;entryY=0.5;entryDx=0;entryDy=0;" edge="1" source="mSMyPiHk9TtF8riK5GBz-31" target="mSMyPiHk9TtF8riK5GBz-35" parent="1">
          <mxGeometry relative="1" as="geometry" />
        </mxCell>
        <mxCell id="mSMyPiHk9TtF8riK5GBz-44" style="edgeStyle=orthogonalEdgeStyle;rounded=0;orthogonalLoop=1;jettySize=auto;html=1;exitX=0.5;exitY=0;exitDx=0;exitDy=0;entryX=0;entryY=0.5;entryDx=0;entryDy=0;" edge="1" parent="1" source="mSMyPiHk9TtF8riK5GBz-31" target="mSMyPiHk9TtF8riK5GBz-26">
          <mxGeometry relative="1" as="geometry" />
        </mxCell>
        <mxCell id="mSMyPiHk9TtF8riK5GBz-45" style="edgeStyle=orthogonalEdgeStyle;rounded=0;orthogonalLoop=1;jettySize=auto;html=1;exitX=0.5;exitY=1;exitDx=0;exitDy=0;entryX=0.5;entryY=0;entryDx=0;entryDy=0;" edge="1" parent="1" source="mSMyPiHk9TtF8riK5GBz-31" target="mSMyPiHk9TtF8riK5GBz-37">
          <mxGeometry relative="1" as="geometry" />
        </mxCell>
        <mxCell id="mSMyPiHk9TtF8riK5GBz-46" style="edgeStyle=orthogonalEdgeStyle;rounded=0;orthogonalLoop=1;jettySize=auto;html=1;exitX=0.5;exitY=1;exitDx=0;exitDy=0;entryX=0.5;entryY=0;entryDx=0;entryDy=0;" edge="1" parent="1" source="mSMyPiHk9TtF8riK5GBz-31" target="mSMyPiHk9TtF8riK5GBz-36">
          <mxGeometry relative="1" as="geometry" />
        </mxCell>
        <mxCell id="mSMyPiHk9TtF8riK5GBz-31" value="Router1" style="rounded=0;whiteSpace=wrap;html=1;" vertex="1" parent="1">
          <mxGeometry x="920" y="200" width="80" height="40" as="geometry" />
        </mxCell>
        <mxCell id="mSMyPiHk9TtF8riK5GBz-32" style="edgeStyle=orthogonalEdgeStyle;rounded=0;orthogonalLoop=1;jettySize=auto;html=1;exitX=0;exitY=0.5;exitDx=0;exitDy=0;entryX=1;entryY=0.5;entryDx=0;entryDy=0;" edge="1" source="mSMyPiHk9TtF8riK5GBz-35" parent="1" target="mSMyPiHk9TtF8riK5GBz-31">
          <mxGeometry relative="1" as="geometry">
            <mxPoint x="990" y="260" as="targetPoint" />
          </mxGeometry>
        </mxCell>
        <mxCell id="mSMyPiHk9TtF8riK5GBz-33" style="edgeStyle=orthogonalEdgeStyle;rounded=0;orthogonalLoop=1;jettySize=auto;html=1;exitX=0.5;exitY=1;exitDx=0;exitDy=0;entryX=0.5;entryY=0;entryDx=0;entryDy=0;" edge="1" source="mSMyPiHk9TtF8riK5GBz-35" target="mSMyPiHk9TtF8riK5GBz-38" parent="1">
          <mxGeometry relative="1" as="geometry" />
        </mxCell>
        <mxCell id="mSMyPiHk9TtF8riK5GBz-34" style="edgeStyle=orthogonalEdgeStyle;rounded=0;orthogonalLoop=1;jettySize=auto;html=1;exitX=0.5;exitY=0;exitDx=0;exitDy=0;entryX=1;entryY=0.5;entryDx=0;entryDy=0;" edge="1" source="mSMyPiHk9TtF8riK5GBz-35" target="mSMyPiHk9TtF8riK5GBz-26" parent="1">
          <mxGeometry relative="1" as="geometry" />
        </mxCell>
        <mxCell id="mSMyPiHk9TtF8riK5GBz-35" value="Router2" style="rounded=0;whiteSpace=wrap;html=1;" vertex="1" parent="1">
          <mxGeometry x="1120" y="200" width="80" height="40" as="geometry" />
        </mxCell>
        <mxCell id="mSMyPiHk9TtF8riK5GBz-36" value="LAN A" style="text;html=1;align=center;verticalAlign=middle;whiteSpace=wrap;rounded=0;" vertex="1" parent="1">
          <mxGeometry x="880" y="280" width="80" height="40" as="geometry" />
        </mxCell>
        <mxCell id="mSMyPiHk9TtF8riK5GBz-37" value="LAN B" style="text;html=1;align=center;verticalAlign=middle;whiteSpace=wrap;rounded=0;" vertex="1" parent="1">
          <mxGeometry x="960" y="280" width="80" height="40" as="geometry" />
        </mxCell>
        <mxCell id="mSMyPiHk9TtF8riK5GBz-38" value="LAN Server" style="text;html=1;align=center;verticalAlign=middle;whiteSpace=wrap;rounded=0;" vertex="1" parent="1">
          <mxGeometry x="1120" y="280" width="80" height="40" as="geometry" />
        </mxCell>
        <mxCell id="mSMyPiHk9TtF8riK5GBz-39" value="&lt;div&gt;LAN&lt;/div&gt;&lt;div&gt;Transit C&lt;br&gt;&lt;/div&gt;" style="text;html=1;align=left;verticalAlign=middle;whiteSpace=wrap;rounded=0;" vertex="1" parent="1">
          <mxGeometry x="970" y="140" width="80" height="40" as="geometry" />
        </mxCell>
        <mxCell id="mSMyPiHk9TtF8riK5GBz-40" value="&lt;div align=&quot;right&quot;&gt;LAN&lt;/div&gt;&lt;div align=&quot;right&quot;&gt;Transit B&lt;br&gt;&lt;/div&gt;" style="text;html=1;align=right;verticalAlign=middle;whiteSpace=wrap;rounded=0;" vertex="1" parent="1">
          <mxGeometry x="1070" y="140" width="80" height="40" as="geometry" />
        </mxCell>
        <mxCell id="mSMyPiHk9TtF8riK5GBz-41" value="Lan Transit A" style="text;html=1;align=center;verticalAlign=middle;whiteSpace=wrap;rounded=0;" vertex="1" parent="1">
          <mxGeometry x="1020" y="180" width="80" height="40" as="geometry" />
        </mxCell>
      </root>
    </mxGraphModel>
  </diagram>
</mxfile>
